<svg width="26" height="30" viewBox="0 0 26 30" fill="none" xmlns="http://www.w3.org/2000/svg">
  <path fill-rule="evenodd" clip-rule="evenodd" d="M0 7.52055L12.9109 0L25.7809 7.52055V22.4795L12.9109 29.9589L0 22.4795V7.52055Z" fill="#F77E3E"/>
  <path fill-rule="evenodd" clip-rule="evenodd" d="M12.9109 15L25.7809 7.52055L12.9109 0L0 7.52055L12.9109 15Z" fill="#221815"/>
  <path fill-rule="evenodd" clip-rule="evenodd" d="M25.7809 7.52051L12.9109 15V29.9589L25.7809 22.4794V7.52051Z" fill="#221815"/>
  <path fill-rule="evenodd" clip-rule="evenodd" d="M0 7.52051L12.9109 15V29.9589L0 22.4794V7.52051Z" fill="#221815"/>
  <path fill-rule="evenodd" clip-rule="evenodd" d="M12.9108 19.4384L17.1191 17.1782L21.164 19.5617L12.9108 24.1645L4.90283 19.5617L4.94369 10.3151L13.0743 5.58911L21.164 10.1097L17.1191 12.4932L13.0334 10.1097L8.98855 12.6576V17.1782L12.9108 19.4384Z" fill="white"/>
  </svg>